<svg xmlns="http://www.w3.org/2000/svg" viewBox="0 0 15 15"><defs><style>.a{fill:#fff;}</style></defs><path class="a" d="M14.7,13.3,11.212,9.8a5.969,5.969,0,0,0,1.364-3.759A6.176,6.176,0,0,0,6.288,0,6.182,6.182,0,0,0,0,6.081a6.182,6.182,0,0,0,6.288,6.081,6.475,6.475,0,0,0,3.485-1L13.3,14.705a1.049,1.049,0,0,0,.72.295,1.106,1.106,0,0,0,.682-.258.912.912,0,0,0,.3-.663A1.171,1.171,0,0,0,14.7,13.3ZM10.606,6.081a4.252,4.252,0,0,1-4.318,4.165A4.252,4.252,0,0,1,1.97,6.081,4.252,4.252,0,0,1,6.288,1.916,4.229,4.229,0,0,1,10.606,6.081Z"/></svg>